<svg xmlns="http://www.w3.org/2000/svg" xmlns:xlink="http://www.w3.org/1999/xlink" viewBox="0 0 408.9 140.22">
  <defs>
    <style>
      .cls-1 {
        fill: url(#New_Gradient_Swatch_2);
      }

      .cls-2 {
        fill: url(#New_Gradient_Swatch_2-2);
      }

      .cls-3 {
        fill: url(#New_Gradient_Swatch_2-3);
      }

      .cls-4 {
        fill: url(#New_Gradient_Swatch_2-4);
      }

      .cls-5 {
        fill: url(#New_Gradient_Swatch_2-5);
      }

      .cls-6 {
        fill: url(#New_Gradient_Swatch_2-6);
      }

      .cls-7 {
        fill: url(#New_Gradient_Swatch_2-7);
      }

      .cls-8 {
        fill: url(#New_Gradient_Swatch_2-8);
      }

      .cls-9 {
        fill: url(#New_Gradient_Swatch_2-9);
      }

      .cls-10 {
        fill: url(#New_Gradient_Swatch_2-10);
      }

      .cls-11 {
        fill: url(#New_Gradient_Swatch_2-11);
      }

      .cls-12 {
        fill: url(#New_Gradient_Swatch_2-12);
      }

      .cls-13 {
        fill: url(#New_Gradient_Swatch_2-13);
      }

      .cls-14 {
        fill: url(#New_Gradient_Swatch_2-14);
      }

      .cls-15 {
        fill: url(#New_Gradient_Swatch_2-15);
      }

      .cls-16 {
        fill: url(#New_Gradient_Swatch_2-16);
      }

      .cls-17 {
        fill: url(#New_Gradient_Swatch_2-17);
      }

      .cls-18 {
        fill: url(#New_Gradient_Swatch_2-18);
      }

      .cls-19 {
        fill: url(#New_Gradient_Swatch_2-19);
      }

      .cls-20 {
        fill: url(#New_Gradient_Swatch_2-20);
      }

      .cls-21 {
        fill: url(#New_Gradient_Swatch_2-21);
      }

      .cls-22 {
        fill: url(#New_Gradient_Swatch_2-22);
      }

      .cls-23 {
        fill: url(#New_Gradient_Swatch_2-23);
      }

      .cls-24 {
        fill: url(#New_Gradient_Swatch_2-24);
      }

      .cls-25 {
        fill: url(#New_Gradient_Swatch_2-25);
      }

      .cls-26 {
        fill: url(#New_Gradient_Swatch_2-26);
      }

      .cls-27 {
        fill: url(#New_Gradient_Swatch_2-27);
      }

      .cls-28 {
        fill: url(#New_Gradient_Swatch_2-28);
      }

      .cls-29 {
        fill: url(#New_Gradient_Swatch_2-29);
      }

      .cls-30 {
        fill: url(#New_Gradient_Swatch_2-30);
      }

      .cls-31 {
        fill: url(#New_Gradient_Swatch_2-31);
      }

      .cls-32 {
        fill: url(#New_Gradient_Swatch_2-32);
      }

      .cls-33 {
        fill: url(#New_Gradient_Swatch_2-33);
      }

      .cls-34 {
        fill: url(#New_Gradient_Swatch_2-34);
      }

      .cls-35 {
        fill: url(#New_Gradient_Swatch_2-35);
      }

      .cls-36 {
        fill: url(#New_Gradient_Swatch_2-36);
      }

      .cls-37 {
        fill: url(#New_Gradient_Swatch_2-37);
      }

      .cls-38 {
        fill: url(#New_Gradient_Swatch_2-38);
      }

      .cls-39 {
        fill: url(#New_Gradient_Swatch_2-39);
      }

      .cls-40 {
        fill: url(#New_Gradient_Swatch_2-40);
      }

      .cls-41 {
        fill: url(#New_Gradient_Swatch_2-41);
      }

      .cls-42 {
        fill: url(#New_Gradient_Swatch_2-42);
      }

      .cls-43 {
        fill: url(#New_Gradient_Swatch_2-43);
      }

      .cls-44 {
        fill: url(#New_Gradient_Swatch_2-44);
      }

      .cls-45 {
        fill: url(#New_Gradient_Swatch_2-45);
      }

      .cls-46 {
        fill: url(#New_Gradient_Swatch_2-46);
      }

      .cls-47 {
        fill: url(#New_Gradient_Swatch_2-47);
      }
    </style>
    <radialGradient id="New_Gradient_Swatch_2" data-name="New Gradient Swatch 2" cx="137.6" cy="26.28" r="18.25" gradientUnits="userSpaceOnUse">
      <stop offset="0" stop-color="#f4c891"/>
      <stop offset="0.07" stop-color="#e4b885"/>
      <stop offset="0.21" stop-color="#c99e71"/>
      <stop offset="0.36" stop-color="#b68b63"/>
      <stop offset="0.51" stop-color="#ab805b"/>
      <stop offset="0.67" stop-color="#a77c58"/>
      <stop offset="1" stop-color="#f4c891"/>
    </radialGradient>
    <radialGradient id="New_Gradient_Swatch_2-2" cx="180.33" cy="26.31" r="20.1" xlink:href="#New_Gradient_Swatch_2"/>
    <radialGradient id="New_Gradient_Swatch_2-3" cx="226.28" cy="26.6" r="20.32" xlink:href="#New_Gradient_Swatch_2"/>
    <radialGradient id="New_Gradient_Swatch_2-4" cx="268.13" cy="25.87" r="19.75" xlink:href="#New_Gradient_Swatch_2"/>
    <radialGradient id="New_Gradient_Swatch_2-5" cx="315.77" cy="26.31" r="16.81" xlink:href="#New_Gradient_Swatch_2"/>
    <radialGradient id="New_Gradient_Swatch_2-6" cx="353.41" cy="26.72" r="20.1" xlink:href="#New_Gradient_Swatch_2"/>
    <radialGradient id="New_Gradient_Swatch_2-7" cx="392.89" cy="26.28" r="17.6" xlink:href="#New_Gradient_Swatch_2"/>
    <radialGradient id="New_Gradient_Swatch_2-8" cx="128.39" cy="75.31" r="11.59" xlink:href="#New_Gradient_Swatch_2"/>
    <radialGradient id="New_Gradient_Swatch_2-9" cx="152.7" cy="75.03" r="12.93" xlink:href="#New_Gradient_Swatch_2"/>
    <radialGradient id="New_Gradient_Swatch_2-10" cx="179.5" cy="75.53" r="13.27" xlink:href="#New_Gradient_Swatch_2"/>
    <radialGradient id="New_Gradient_Swatch_2-11" cx="207.14" cy="80.23" r="15.36" xlink:href="#New_Gradient_Swatch_2"/>
    <radialGradient id="New_Gradient_Swatch_2-12" cx="233.46" cy="75.03" r="12.93" xlink:href="#New_Gradient_Swatch_2"/>
    <radialGradient id="New_Gradient_Swatch_2-13" cx="262.25" cy="75.31" r="14.53" xlink:href="#New_Gradient_Swatch_2"/>
    <radialGradient id="New_Gradient_Swatch_2-14" cx="291.15" cy="75.27" r="11.78" xlink:href="#New_Gradient_Swatch_2"/>
    <radialGradient id="New_Gradient_Swatch_2-15" cx="316.63" cy="75.53" r="13.27" xlink:href="#New_Gradient_Swatch_2"/>
    <radialGradient id="New_Gradient_Swatch_2-16" cx="343.93" cy="74.81" r="12.36" xlink:href="#New_Gradient_Swatch_2"/>
    <radialGradient id="New_Gradient_Swatch_2-17" cx="370.8" cy="75.33" r="13.16" xlink:href="#New_Gradient_Swatch_2"/>
    <radialGradient id="New_Gradient_Swatch_2-18" cx="395.4" cy="75.33" r="11.14" xlink:href="#New_Gradient_Swatch_2"/>
    <radialGradient id="New_Gradient_Swatch_2-19" cx="122.57" cy="114.8" r="4.32" xlink:href="#New_Gradient_Swatch_2"/>
    <radialGradient id="New_Gradient_Swatch_2-20" cx="134.9" cy="114.8" r="5.69" xlink:href="#New_Gradient_Swatch_2"/>
    <radialGradient id="New_Gradient_Swatch_2-21" cx="148.47" cy="114.8" r="4.51" xlink:href="#New_Gradient_Swatch_2"/>
    <radialGradient id="New_Gradient_Swatch_2-22" cx="159.29" cy="114.8" r="4.73" xlink:href="#New_Gradient_Swatch_2"/>
    <radialGradient id="New_Gradient_Swatch_2-23" cx="169.14" cy="114.8" r="4.32" xlink:href="#New_Gradient_Swatch_2"/>
    <radialGradient id="New_Gradient_Swatch_2-24" cx="178.52" cy="114.8" r="4.32" xlink:href="#New_Gradient_Swatch_2"/>
    <radialGradient id="New_Gradient_Swatch_2-25" cx="189.58" cy="114.8" r="5.04" xlink:href="#New_Gradient_Swatch_2"/>
    <radialGradient id="New_Gradient_Swatch_2-26" cx="203.06" cy="114.8" r="5.04" xlink:href="#New_Gradient_Swatch_2"/>
    <radialGradient id="New_Gradient_Swatch_2-27" cx="211.59" cy="114.8" r="3.71" xlink:href="#New_Gradient_Swatch_2"/>
    <radialGradient id="New_Gradient_Swatch_2-28" cx="222.15" cy="114.8" r="5.69" xlink:href="#New_Gradient_Swatch_2"/>
    <radialGradient id="New_Gradient_Swatch_2-29" cx="235.22" cy="114.8" r="4.32" xlink:href="#New_Gradient_Swatch_2"/>
    <radialGradient id="New_Gradient_Swatch_2-30" cx="246.28" cy="114.8" r="5.04" xlink:href="#New_Gradient_Swatch_2"/>
    <radialGradient id="New_Gradient_Swatch_2-31" cx="257.88" cy="114.8" r="4.73" xlink:href="#New_Gradient_Swatch_2"/>
    <radialGradient id="New_Gradient_Swatch_2-32" cx="268.79" cy="114.8" r="5.58" xlink:href="#New_Gradient_Swatch_2"/>
    <radialGradient id="New_Gradient_Swatch_2-33" cx="280.47" cy="114.8" r="4.7" xlink:href="#New_Gradient_Swatch_2"/>
    <radialGradient id="New_Gradient_Swatch_2-34" cx="293.16" cy="114.8" r="3.71" xlink:href="#New_Gradient_Swatch_2"/>
    <radialGradient id="New_Gradient_Swatch_2-35" cx="303.73" cy="114.8" r="5.69" xlink:href="#New_Gradient_Swatch_2"/>
    <radialGradient id="New_Gradient_Swatch_2-36" cx="318.6" cy="114.8" r="5.58" xlink:href="#New_Gradient_Swatch_2"/>
    <radialGradient id="New_Gradient_Swatch_2-37" cx="331.06" cy="114.8" r="4.53" xlink:href="#New_Gradient_Swatch_2"/>
    <radialGradient id="New_Gradient_Swatch_2-38" cx="338.51" cy="114.8" r="3.71" xlink:href="#New_Gradient_Swatch_2"/>
    <radialGradient id="New_Gradient_Swatch_2-39" cx="346.05" cy="114.8" r="4.29" xlink:href="#New_Gradient_Swatch_2"/>
    <radialGradient id="New_Gradient_Swatch_2-40" cx="352.37" cy="114.8" r="3.71" xlink:href="#New_Gradient_Swatch_2"/>
    <radialGradient id="New_Gradient_Swatch_2-41" cx="360.83" cy="114.8" r="5.28" xlink:href="#New_Gradient_Swatch_2"/>
    <radialGradient id="New_Gradient_Swatch_2-42" cx="372.8" cy="114.8" r="4.73" xlink:href="#New_Gradient_Swatch_2"/>
    <radialGradient id="New_Gradient_Swatch_2-43" cx="380.13" cy="114.8" r="3.71" xlink:href="#New_Gradient_Swatch_2"/>
    <radialGradient id="New_Gradient_Swatch_2-44" cx="389.55" cy="114.8" r="5.58" xlink:href="#New_Gradient_Swatch_2"/>
    <radialGradient id="New_Gradient_Swatch_2-45" cx="401.23" cy="114.8" r="4.7" xlink:href="#New_Gradient_Swatch_2"/>
    <radialGradient id="New_Gradient_Swatch_2-46" cx="74.31" cy="80.01" r="13.66" xlink:href="#New_Gradient_Swatch_2"/>
    <radialGradient id="New_Gradient_Swatch_2-47" cx="46.79" cy="70.11" r="59.6" xlink:href="#New_Gradient_Swatch_2"/>
  </defs>
  <g id="Layer_2" data-name="Layer 2">
    <g id="Layer_1-2" data-name="Layer 1">
      <g>
        <path class="cls-1" d="M155,34.49c-.42,2.22-2.07,8.79-2.61,10.84H120.61L120.2,44c7.22-10.73,15.21-22.8,22.55-34.06h-9.12c-4.26,0-5.27.59-6.51,2.58a27.92,27.92,0,0,0-2.37,5l-2.25-.06a31,31,0,0,1,1.74-10.28l4.77,0h23.92l.41,1c-7.22,11-14.85,22.57-22.25,34.18,1.95.17,3.67.17,7.4.17,7,0,8.16-.17,9.88-1.75A21.62,21.62,0,0,0,152.75,34Z"/>
        <path class="cls-2" d="M180.74,6.4c10.95,0,19.89,7.92,19.89,19.47,0,12.49-9,20.34-20.18,20.34-11.84,0-20.42-8.56-20.42-19.87C160,16.31,167.25,6.4,180.74,6.4ZM179.85,9c-6,0-10.47,5.87-10.47,16.24,0,9.91,4,18.41,12,18.41,5.63,0,10-5.39,10-16.12C191.34,15.9,186.72,9,179.85,9Z"/>
        <path class="cls-3" d="M247.5,9.39c-3.61.47-4.73,1.24-4.91,3.87-.18,2.29-.35,4.28-.35,9.38V46h-3.32L214.24,16.66V29.91c0,5.1.12,7.39.29,9.09.24,2.58,1.48,3.93,5.86,4.16v2.17H205.72V43.16c3.37-.29,4.85-1.17,5.2-3.93a77,77,0,0,0,.36-9.32V16A7,7,0,0,0,210,11.27c-1.07-1.47-2.49-1.64-5-1.88V7.23h11.55l22.55,26V22.64c0-5.1-.06-7-.24-9.2-.18-2.52-1.12-3.75-6-4V7.23H247.5Z"/>
        <path class="cls-4" d="M271,45.33V43.16c3.73-.53,3.73-1.17,2.9-3.69-.59-1.76-1.54-4.4-2.43-6.74H259.93c-.65,1.81-1.48,4-2.07,5.86-1.25,3.69.17,4.16,4.85,4.57v2.17H248.09V43.16c3.73-.47,4.68-1,6.69-5.92L267.09,6.93l2.84-.53c3.79,10.21,7.81,20.64,11.66,30.43,2.19,5.45,2.72,5.86,6.57,6.33v2.17Zm-5.21-28c-1.72,4.22-3.38,8.15-4.85,12.43h9.41Z"/>
        <path class="cls-5" d="M325,16.9c-1.18-3.75-2.84-8-8.28-8A5.43,5.43,0,0,0,311,14.55c0,3.23,2.19,5.16,7.4,7.74,6.34,3.11,10.36,6.16,10.36,12,0,6.92-5.8,12-14.26,12a34.56,34.56,0,0,1-9.95-1.82c-.35-1.35-1.36-7.44-1.77-10.2l2.31-.52c1.18,3.69,4.49,10.08,10.29,10.08,3.61,0,5.81-2.23,5.81-6,0-3.4-2.14-5.39-7.11-8-6.15-3.29-10.18-6.22-10.18-12.31s4.86-11,13.73-11a43.68,43.68,0,0,1,8.47,1.06c.23,2.17.65,5.22,1.12,8.91Z"/>
        <path class="cls-6" d="M374.1,9.39c-3.79.36-4.8,1.47-5,3.58a72.77,72.77,0,0,0-.3,7.86v7.68c0,5-.83,10.14-4.2,13.66-2.72,2.81-6.93,4-11.13,4-3.91,0-7.81-.82-10.59-3.05-3.44-2.58-5.09-6.15-5.09-12.72V15.61c0-5.39-.54-5.81-5-6.22V7.23H351V9.39c-4.44.41-5,.83-5,6.22V31.2c0,6.57,3.26,10.91,9.59,10.91,7,0,10.12-5.16,10.12-14V20.83c0-4-.18-6.16-.29-7.92-.24-2.69-1.9-3.28-6-3.52V7.23H374.1Z"/>
        <path class="cls-7" d="M408.9,35c-.48,2.52-2.13,8.74-2.67,10.32H376.88V43.16c5.2-.35,5.68-.76,5.68-5.68V15.14c0-4.92-.59-5.39-5-5.75V7.23H396V9.39c-4.61.41-5.21.83-5.21,5.75V37.89c0,3.22.12,4.69,3.38,4.74.12.06,2.84.06,3.08.06,3.37,0,4.26-.7,5.68-2.28a24.94,24.94,0,0,0,3.73-6.1Z"/>
      </g>
      <g>
        <path class="cls-8" d="M138.55,81.2c-.3,1.7-1.35,5.89-1.69,7H118.22V86.7c3.31-.24,3.61-.52,3.61-3.84V67.79c0-3.32-.38-3.64-3.2-3.87V62.45h11.73v1.47c-2.93.27-3.31.55-3.31,3.87V83.14c0,2.17.08,3.16,2.14,3.2.08,0,1.81,0,2,0,2.14,0,2.7-.47,3.61-1.54a16.59,16.59,0,0,0,2.36-4.11Z"/>
        <path class="cls-9" d="M154.52,88.16V86.7c2.37-.36,2.37-.79,1.85-2.49-.38-1.19-1-3-1.55-4.55H147.5c-.42,1.22-.94,2.73-1.32,4-.79,2.5.11,2.81,3.08,3.09v1.46H140V86.7c2.37-.32,3-.67,4.25-4L152,62.26l1.81-.36c2.4,6.88,5,13.92,7.4,20.53,1.39,3.68,1.73,3.95,4.17,4.27v1.46Zm-3.3-18.9c-1.09,2.84-2.15,5.49-3.09,8.38h6Z"/>
        <path class="cls-10" d="M193,63.92c-2.29.31-3,.83-3.12,2.61-.11,1.54-.23,2.89-.23,6.33V88.6h-2.1L171.85,68.82v8.94a60.59,60.59,0,0,0,.19,6.13c.15,1.74.94,2.65,3.72,2.81v1.46h-9.32V86.7c2.14-.2,3.08-.79,3.3-2.65a55.8,55.8,0,0,0,.23-6.29V68.39a5,5,0,0,0-.79-3.21c-.68-1-1.58-1.1-3.16-1.26V62.45h7.33L187.67,80V72.86c0-3.44,0-4.75-.15-6.21-.11-1.7-.71-2.53-3.83-2.73V62.45H193Z"/>
        <path class="cls-11" d="M218.79,81.36a57.25,57.25,0,0,1-2.11,6.37,31.25,31.25,0,0,1-6.91,1c-10.11,0-14.28-6.84-14.28-13.13,0-8.18,5.94-13.72,14.95-13.72a37.9,37.9,0,0,1,7.11,1c.19,1.86.45,4.78.71,6.53l-1.5.27c-.79-3.08-1.92-4.55-3.91-5.38a9.14,9.14,0,0,0-3.27-.55c-5.45,0-8.19,4.78-8.19,11,0,7.24,3.53,12.15,8.68,12.15,3.16,0,5.26-1.74,7.29-6.09Zm-8.61,7.28a6.32,6.32,0,0,0-1.24,1.7c0,.27.19.55,1,.87,2.25,1,2.74,1.82,2.74,3,0,2.14-2,4-6.12,4.39l-.34-1.26c2.44-.56,3.42-1.15,3.42-1.9,0-.51-.38-.83-1.73-1.42-1.2-.56-1.84-1.15-1.8-2,0-.71.82-1.82,2.44-3.32Z"/>
        <path class="cls-12" d="M235.29,88.16V86.7c2.36-.36,2.36-.79,1.84-2.49-.38-1.19-1-3-1.54-4.55h-7.33c-.42,1.22-.94,2.73-1.32,4-.79,2.5.12,2.81,3.08,3.09v1.46h-9.28V86.7c2.37-.32,3-.67,4.25-4l7.82-20.44,1.8-.36c2.41,6.88,5,13.92,7.4,20.53,1.39,3.68,1.73,3.95,4.18,4.27v1.46ZM232,69.26c-1.09,2.84-2.14,5.49-3.08,8.38h6Z"/>
        <path class="cls-13" d="M266.85,88.16V86.7c2.86-.32,3-.59,3-4.15l0-15.43c-2.7,6.8-5.67,14.32-8.38,21h-1.24c-2.44-6.45-5.11-13.8-7.82-20.72-.48,12.42-.48,14.87-.48,16.29,0,2.14.78,2.69,3.6,3v1.46h-9.32V86.7c2.14-.2,3.12-.63,3.42-3,.15-1.18.3-3.44,1.17-16.49.11-1.9-.15-3-3.38-3.28V62.45h8.11L262.8,79.9l7.29-17.45H278v1.47c-3,.31-3.35.63-3.27,3.79l.3,14.84c0,3.56.19,3.71,3.23,4.15v1.46Z"/>
        <path class="cls-14" d="M301.69,81.44c-.18,1.07-1.24,5.61-1.58,6.72h-19.5V86.74c3.42-.36,3.64-.56,3.64-3.88V67.75c0-3.36-.45-3.6-3-3.83V62.45h12.21c4,0,5.26,0,5.79-.07,0,.71.23,3.95.38,6.4l-1.47.2a10.15,10.15,0,0,0-1.62-3.68c-.67-.79-1.16-1-3.08-1H291c-1.43,0-1.58.08-1.58,1.43V74h3.68c2.11,0,2.48-.59,3.05-3.4h1.46v8.82h-1.46c-.6-2.92-.9-3.4-3.08-3.4h-3.65v6.8c0,2.73.08,3.56,2.41,3.6h2.67c2.1,0,2.66-.27,3.49-1.34a17.76,17.76,0,0,0,2.29-4Z"/>
        <path class="cls-15" d="M330.1,63.92c-2.29.31-3,.83-3.11,2.61-.12,1.54-.23,2.89-.23,6.33V88.6h-2.1L309,68.82v8.94c0,3.44.08,5,.19,6.13.15,1.74.94,2.65,3.72,2.81v1.46h-9.32V86.7c2.14-.2,3.08-.79,3.31-2.65a56.6,56.6,0,0,0,.22-6.29V68.39a4.9,4.9,0,0,0-.79-3.21c-.67-1-1.57-1.1-3.15-1.26V62.45h7.33L324.81,80V72.86c0-3.44,0-4.75-.15-6.21-.12-1.7-.72-2.53-3.84-2.73V62.45h9.28Z"/>
        <path class="cls-16" d="M353.78,69.3a12.29,12.29,0,0,0-1.62-3.88c-.67-.83-1-1.15-3.19-1.15h-2.41V82.86c0,3.32.38,3.56,3.73,3.84v1.46H337.81V86.7c3.19-.28,3.53-.52,3.53-3.84V64.27h-2.29c-2.11,0-2.71.36-3.42,1.31a15.25,15.25,0,0,0-1.54,3.76h-1.43c.26-2.89.53-6,.6-7.88h1.13c.56.92,1,1,2.14,1h15a2.41,2.41,0,0,0,2.18-1h1.09c0,1.67.19,5.15.38,7.72Z"/>
        <path class="cls-17" d="M371.07,61.9C378,61.9,383.7,67.24,383.7,75c0,8.43-5.72,13.72-12.82,13.72-7.52,0-13-5.77-13-13.4C357.91,68.58,362.5,61.9,371.07,61.9Zm-.57,1.74c-3.83,0-6.65,4-6.65,11,0,6.68,2.52,12.41,7.59,12.41,3.57,0,6.35-3.63,6.35-10.87C377.79,68.31,374.86,63.64,370.5,63.64Z"/>
        <path class="cls-18" d="M401.25,69c-.76-2.53-1.81-5.42-5.27-5.42a3.55,3.55,0,0,0-3.6,3.84c0,2.17,1.39,3.48,4.69,5.22,4,2.09,6.58,4.15,6.58,8.07,0,4.66-3.68,8.06-9.06,8.06a20.92,20.92,0,0,1-6.31-1.22c-.23-.91-.86-5-1.13-6.88l1.47-.36c.75,2.49,2.85,6.8,6.54,6.8,2.29,0,3.68-1.5,3.68-4,0-2.29-1.35-3.64-4.51-5.42-3.91-2.21-6.46-4.19-6.46-8.3s3.08-7.44,8.71-7.44a26.46,26.46,0,0,1,5.38.71c.15,1.47.41,3.52.71,6Z"/>
      </g>
      <g>
        <path class="cls-19" d="M125.77,120h-6.4V109.59h6.13v1h-4.77v3.56h4.42v1h-4.42V119h5Z"/>
        <path class="cls-20" d="M141,120h-1.35v-7c0-.24,0-.52,0-.85s.05-.68.09-1.08h0c-.08.23-.15.43-.2.59a2.75,2.75,0,0,1-.18.41l-4.15,8h-.68l-4.15-7.9a3.49,3.49,0,0,1-.18-.45c-.06-.18-.12-.38-.18-.62H130c0,.23.05.5.06.82s0,.69,0,1.1v7h-1.31V109.59h1.74l3.87,7.46c.13.23.23.45.32.64s.15.38.2.53h.05l.29-.7.24-.51,3.89-7.42H141Z"/>
        <path class="cls-21" d="M146.14,116.14V120h-1.37V109.59h3.31a4.87,4.87,0,0,1,3,.81,2.76,2.76,0,0,1,1.06,2.33,3,3,0,0,1-1.18,2.46,5,5,0,0,1-3.23,1Zm0-5.51v4.48h1.52a3.72,3.72,0,0,0,2.29-.6,2.06,2.06,0,0,0,.78-1.72,1.88,1.88,0,0,0-.72-1.62,3.59,3.59,0,0,0-2.17-.54Z"/>
        <path class="cls-22" d="M163.5,120h-1.6l-2-3a3.44,3.44,0,0,0-1-1.1,2.06,2.06,0,0,0-1.08-.26h-1.4V120h-1.36V109.59h3.58a4.62,4.62,0,0,1,2.67.72,2.4,2.4,0,0,1,1,2.1,2.67,2.67,0,0,1-.68,1.84,3.73,3.73,0,0,1-1.9,1.07v0a2.66,2.66,0,0,1,.71.45,3.8,3.8,0,0,1,.66.77Zm-7.06-9.37v4h1.94a2.82,2.82,0,0,0,1.84-.59,1.88,1.88,0,0,0,.72-1.54,1.64,1.64,0,0,0-.64-1.37,2.94,2.94,0,0,0-1.86-.51Z"/>
        <path class="cls-23" d="M172.34,120h-6.4V109.59h6.12v1H167.3v3.56h4.41v1H167.3V119h5Z"/>
        <path class="cls-24" d="M181.72,120h-6.4V109.59h6.13v1h-4.77v3.56h4.42v1h-4.42V119h5Z"/>
        <path class="cls-25" d="M194.46,120h-1.55l-6.42-8.23a3.43,3.43,0,0,1-.24-.33,2.77,2.77,0,0,1-.2-.34h0a3.72,3.72,0,0,1,0,.46c0,.2,0,.46,0,.77V120h-1.35V109.59h1.64l6.3,8.12.29.4.21.3h0a4,4,0,0,1-.05-.57c0-.23,0-.5,0-.81v-7.44h1.35Z"/>
        <path class="cls-26" d="M198.19,120V109.59h3.35a7.61,7.61,0,0,1,4.79,1.27,4.55,4.55,0,0,1,1.61,3.8,4.76,4.76,0,0,1-1.77,3.88,7.22,7.22,0,0,1-4.76,1.46Zm1.36-9.37V119h1.83a5.79,5.79,0,0,0,3.78-1.11,3.85,3.85,0,0,0,1.35-3.16,3.68,3.68,0,0,0-1.26-3,6,6,0,0,0-3.77-1Z"/>
        <path class="cls-27" d="M212.27,120h-1.36V109.59h1.36Z"/>
        <path class="cls-28" d="M228.3,120h-1.36v-7c0-.24,0-.52,0-.85s.05-.68.09-1.08h0l-.21.59c-.06.17-.12.3-.17.41l-4.16,8h-.68l-4.14-7.9c-.06-.12-.12-.27-.19-.45s-.12-.38-.18-.62h-.05c0,.23.05.5.06.82s0,.69,0,1.1v7H216V109.59h1.75l3.87,7.46c.12.23.23.45.31.64s.15.38.21.53h0c.1-.26.2-.5.29-.7l.23-.51,3.9-7.42h1.68Z"/>
        <path class="cls-29" d="M238.42,120H232V109.59h6.13v1h-4.76v3.56h4.41v1h-4.41V119h5Z"/>
        <path class="cls-30" d="M251.16,120h-1.55l-6.42-8.23a3.43,3.43,0,0,1-.24-.33c-.07-.1-.13-.22-.2-.34h0a3.72,3.72,0,0,1,0,.46c0,.2,0,.46,0,.77V120h-1.35V109.59h1.64l6.3,8.12.29.4.21.3h0a4,4,0,0,1,0-.57c0-.23,0-.5,0-.81v-7.44h1.35Z"/>
        <path class="cls-31" d="M262.08,110.63h-3.52V120H257.2v-9.37h-3.52v-1h8.4Z"/>
        <path class="cls-32" d="M268.74,120.18a5.8,5.8,0,0,1-4.15-1.47,4.93,4.93,0,0,1-1.57-3.8,5.2,5.2,0,0,1,1.6-4,6,6,0,0,1,4.33-1.5,5.69,5.69,0,0,1,4.06,1.45,5,5,0,0,1,1.55,3.8,5.26,5.26,0,0,1-1.59,4A6,6,0,0,1,268.74,120.18Zm0-1.05A4.47,4.47,0,0,0,272,118a4.24,4.24,0,0,0,1.17-3.19A4.34,4.34,0,0,0,272,111.6a4.4,4.4,0,0,0-7.52,3.22,4.05,4.05,0,0,0,4.28,4.31Z"/>
        <path class="cls-33" d="M276.57,119.17l.68-.87a5.63,5.63,0,0,0,1.48.64,6.8,6.8,0,0,0,1.71.2,3.25,3.25,0,0,0,1.84-.48,1.51,1.51,0,0,0,.73-1.36,1.47,1.47,0,0,0-.6-1.22,6.16,6.16,0,0,0-2-.88,7.58,7.58,0,0,1-2.56-1.18,2.19,2.19,0,0,1-.81-1.76,2.47,2.47,0,0,1,1.05-2.06,4.63,4.63,0,0,1,2.81-.78,6.93,6.93,0,0,1,1.57.17,7.44,7.44,0,0,1,1.55.52l-.59.92a5.81,5.81,0,0,0-1.27-.44,6,6,0,0,0-1.36-.14,3.06,3.06,0,0,0-1.76.45,1.43,1.43,0,0,0-.64,1.25,1.33,1.33,0,0,0,.59,1.12,7.13,7.13,0,0,0,2,.84,7,7,0,0,1,2.57,1.23,2.33,2.33,0,0,1,.79,1.85,2.6,2.6,0,0,1-1.06,2.14,4.6,4.6,0,0,1-3,.85,7.51,7.51,0,0,1-2-.25A6.59,6.59,0,0,1,276.57,119.17Z"/>
        <path class="cls-34" d="M293.84,120h-1.36V109.59h1.36Z"/>
        <path class="cls-35" d="M309.87,120h-1.35v-7c0-.24,0-.52,0-.85s.05-.68.09-1.08h0l-.21.59c-.06.17-.12.3-.17.41l-4.15,8h-.68l-4.15-7.9a3.49,3.49,0,0,1-.18-.45,3.86,3.86,0,0,1-.18-.62h-.05c0,.23,0,.5.06.82s0,.69,0,1.1v7h-1.32V109.59h1.75l3.87,7.46c.12.23.23.45.31.64s.16.38.21.53h0c.11-.26.2-.5.29-.7l.24-.51,3.89-7.42h1.68Z"/>
        <path class="cls-36" d="M318.55,120.18a5.8,5.8,0,0,1-4.15-1.47,4.93,4.93,0,0,1-1.57-3.8,5.2,5.2,0,0,1,1.6-4,6,6,0,0,1,4.33-1.5,5.69,5.69,0,0,1,4.06,1.45,5,5,0,0,1,1.55,3.8,5.26,5.26,0,0,1-1.59,4A6,6,0,0,1,318.55,120.18Zm0-1.05a4.47,4.47,0,0,0,3.21-1.13,4.24,4.24,0,0,0,1.17-3.19,4.34,4.34,0,0,0-1.14-3.21,4.4,4.4,0,0,0-7.52,3.22,4.05,4.05,0,0,0,4.28,4.31Z"/>
        <path class="cls-37" d="M327.33,120V109.59h3.47a4.31,4.31,0,0,1,2.5.65,2,2,0,0,1,.92,1.75,2.31,2.31,0,0,1-.56,1.53,3.2,3.2,0,0,1-1.54.94v0a3.28,3.28,0,0,1,1.95.8,2.27,2.27,0,0,1,.72,1.73,2.58,2.58,0,0,1-1.1,2.16,4.49,4.49,0,0,1-2.81.83Zm1.36-9.38v3.47h1.53a3.18,3.18,0,0,0,1.88-.49,1.61,1.61,0,0,0,.69-1.39,1.33,1.33,0,0,0-.6-1.19,3.24,3.24,0,0,0-1.8-.4Zm0,4.51V119h2a3.22,3.22,0,0,0,2-.52,1.69,1.69,0,0,0,.7-1.44,1.55,1.55,0,0,0-.75-1.41,4.28,4.28,0,0,0-2.23-.47Z"/>
        <path class="cls-38" d="M339.19,120h-1.36V109.59h1.36Z"/>
        <path class="cls-39" d="M349.17,120h-6.24V109.59h1.37V119h4.87Z"/>
        <path class="cls-40" d="M353.05,120h-1.36V109.59h1.36Z"/>
        <path class="cls-41" d="M355.47,120l4.64-10.41h1.42L366.19,120h-1.52l-1.25-2.86h-5.25L357,120Zm3.15-3.89H363l-2-4.57a2.39,2.39,0,0,1-.11-.32l-.1-.41h0c0,.15-.07.29-.1.41s-.08.22-.12.31Z"/>
        <path class="cls-42" d="M377,120H375.4l-2-3a3.44,3.44,0,0,0-1-1.1,2.07,2.07,0,0,0-1.09-.26H370V120h-1.36V109.59h3.58a4.56,4.56,0,0,1,2.66.72,2.39,2.39,0,0,1,1.05,2.1,2.63,2.63,0,0,1-.69,1.84,3.69,3.69,0,0,1-1.9,1.07v0a2.72,2.72,0,0,1,.72.45,3.78,3.78,0,0,1,.65.77ZM370,110.63v4h1.94a2.82,2.82,0,0,0,1.84-.59,1.88,1.88,0,0,0,.72-1.54,1.64,1.64,0,0,0-.64-1.37,2.94,2.94,0,0,0-1.86-.51Z"/>
        <path class="cls-43" d="M380.81,120h-1.36V109.59h1.36Z"/>
        <path class="cls-44" d="M389.5,120.18a5.82,5.82,0,0,1-4.15-1.47,5,5,0,0,1-1.57-3.8,5.23,5.23,0,0,1,1.6-4,6.07,6.07,0,0,1,4.34-1.5,5.66,5.66,0,0,1,4,1.45,4.92,4.92,0,0,1,1.55,3.8,5.29,5.29,0,0,1-1.58,4A6,6,0,0,1,389.5,120.18Zm0-1.05a4.44,4.44,0,0,0,3.21-1.13,4.24,4.24,0,0,0,1.17-3.19,4.34,4.34,0,0,0-1.14-3.21,4.25,4.25,0,0,0-3.14-1.14,4.33,4.33,0,0,0-3.16,1.2,4.72,4.72,0,0,0,0,6.29A4.18,4.18,0,0,0,389.5,119.13Z"/>
        <path class="cls-45" d="M397.33,119.17l.68-.87a5.77,5.77,0,0,0,1.48.64,6.8,6.8,0,0,0,1.71.2,3.28,3.28,0,0,0,1.85-.48,1.53,1.53,0,0,0,.72-1.36,1.49,1.49,0,0,0-.59-1.22,6.16,6.16,0,0,0-2-.88,7.48,7.48,0,0,1-2.56-1.18,2.17,2.17,0,0,1-.82-1.76,2.46,2.46,0,0,1,1.06-2.06,4.6,4.6,0,0,1,2.8-.78,6.93,6.93,0,0,1,1.57.17,7.52,7.52,0,0,1,1.56.52l-.59.92a6,6,0,0,0-2.64-.58,3,3,0,0,0-1.75.45,1.44,1.44,0,0,0-.65,1.25,1.33,1.33,0,0,0,.59,1.12,7.42,7.42,0,0,0,2,.84,7.2,7.2,0,0,1,2.58,1.23,2.35,2.35,0,0,1,.78,1.85,2.6,2.6,0,0,1-1.06,2.14,4.57,4.57,0,0,1-2.95.85,7.45,7.45,0,0,1-2-.25A6.65,6.65,0,0,1,397.33,119.17Z"/>
      </g>
      <g>
        <path class="cls-46" d="M82.59,66.59c-3.1,6.92-7.37,13.29-10.91,16.33-2.83,2.47-5,3.49-11.26,3.9v6.62H81.71C83,88.6,87.16,73.09,88.19,67.83Z"/>
        <path class="cls-47" d="M64.42,45.9c9.85-14,19.64-27.9,29.16-41.43l-1-2.64L33.26,0,20.64.07Q18.47,12.54,16.31,25l5.58.32A67.67,67.67,0,0,1,28.15,13c3.24-4.83,5.78-6.2,16.36-5.88l22.63.7C61.53,15.88,55.77,24.07,50,32.3a80.43,80.43,0,0,0-9.8-.61C16.16,31.69,3,45,3,61.74c0,9.7,3.71,16.47,10.11,22.2L8.56,90.31l.93,3.22,18.88.58c.72.4,1.45.8,2.19,1.19,13.44,7.2,19.2,12.63,19.2,21.9,0,10.23-5.92,16.31-15.68,16.31-15.68,0-24.64-17.43-27.84-27.5L0,107.45c1.12,7.52,3.84,24.14,4.8,27.82,7.52,2.23,16.64,4.95,26.88,4.95,22.88,0,38.56-13.75,38.56-32.61a26.88,26.88,0,0,0-2.75-12.29l-4.95-6.9c-4.59-4.77-11-8.75-18.89-12.71l14.5-20.86m-35.91-.94C22.24,45,28.32,38.4,37.6,38.4a21.83,21.83,0,0,1,7.24,1.14c-6,8.51-12.08,17-18.05,25.38A15,15,0,0,1,22.24,53.91Z"/>
      </g>
    </g>
  </g>
</svg>
