<svg xmlns="http://www.w3.org/2000/svg" xmlns:xlink="http://www.w3.org/1999/xlink" viewBox="0 0 463.68 140.22">
  <defs>
    <style>
      .cls-1 {
        fill: url(#New_Gradient_Swatch_2);
      }

      .cls-2 {
        fill: url(#New_Gradient_Swatch_2-2);
      }

      .cls-3 {
        fill: url(#New_Gradient_Swatch_2-3);
      }

      .cls-4 {
        fill: url(#New_Gradient_Swatch_2-4);
      }

      .cls-5 {
        fill: url(#New_Gradient_Swatch_2-5);
      }

      .cls-6 {
        fill: url(#New_Gradient_Swatch_2-6);
      }

      .cls-7 {
        fill: url(#New_Gradient_Swatch_2-7);
      }

      .cls-8 {
        fill: url(#New_Gradient_Swatch_2-8);
      }

      .cls-9 {
        fill: url(#New_Gradient_Swatch_2-9);
      }

      .cls-10 {
        fill: url(#New_Gradient_Swatch_2-10);
      }

      .cls-11 {
        fill: url(#New_Gradient_Swatch_2-11);
      }

      .cls-12 {
        fill: url(#New_Gradient_Swatch_2-12);
      }

      .cls-13 {
        fill: url(#New_Gradient_Swatch_2-13);
      }

      .cls-14 {
        fill: url(#New_Gradient_Swatch_2-14);
      }

      .cls-15 {
        fill: url(#New_Gradient_Swatch_2-15);
      }

      .cls-16 {
        fill: url(#New_Gradient_Swatch_2-16);
      }

      .cls-17 {
        fill: url(#New_Gradient_Swatch_2-17);
      }

      .cls-18 {
        fill: url(#New_Gradient_Swatch_2-18);
      }

      .cls-19 {
        fill: url(#New_Gradient_Swatch_2-19);
      }

      .cls-20 {
        fill: url(#New_Gradient_Swatch_2-20);
      }
    </style>
    <radialGradient id="New_Gradient_Swatch_2" data-name="New Gradient Swatch 2" cx="143.18" cy="49.06" r="21.55" gradientUnits="userSpaceOnUse">
      <stop offset="0" stop-color="#f4c891"/>
      <stop offset="0.07" stop-color="#e4b885"/>
      <stop offset="0.21" stop-color="#c99e71"/>
      <stop offset="0.36" stop-color="#b68b63"/>
      <stop offset="0.51" stop-color="#ab805b"/>
      <stop offset="0.67" stop-color="#a77c58"/>
      <stop offset="1" stop-color="#f4c891"/>
    </radialGradient>
    <radialGradient id="New_Gradient_Swatch_2-2" cx="193.66" cy="49.09" r="23.75" xlink:href="#New_Gradient_Swatch_2"/>
    <radialGradient id="New_Gradient_Swatch_2-3" cx="247.95" cy="49.44" r="24" xlink:href="#New_Gradient_Swatch_2"/>
    <radialGradient id="New_Gradient_Swatch_2-4" cx="297.38" cy="48.57" r="23.33" xlink:href="#New_Gradient_Swatch_2"/>
    <radialGradient id="New_Gradient_Swatch_2-5" cx="353.66" cy="49.09" r="19.85" xlink:href="#New_Gradient_Swatch_2"/>
    <radialGradient id="New_Gradient_Swatch_2-6" cx="398.13" cy="49.58" r="23.74" xlink:href="#New_Gradient_Swatch_2"/>
    <radialGradient id="New_Gradient_Swatch_2-7" cx="444.76" cy="49.06" r="20.79" xlink:href="#New_Gradient_Swatch_2"/>
    <radialGradient id="New_Gradient_Swatch_2-8" cx="132.29" cy="106.98" r="13.69" xlink:href="#New_Gradient_Swatch_2"/>
    <radialGradient id="New_Gradient_Swatch_2-9" cx="161.02" cy="106.65" r="15.27" xlink:href="#New_Gradient_Swatch_2"/>
    <radialGradient id="New_Gradient_Swatch_2-10" cx="192.67" cy="107.23" r="15.68" xlink:href="#New_Gradient_Swatch_2"/>
    <radialGradient id="New_Gradient_Swatch_2-11" cx="225.33" cy="112.79" r="18.14" xlink:href="#New_Gradient_Swatch_2"/>
    <radialGradient id="New_Gradient_Swatch_2-12" cx="256.43" cy="106.65" r="15.27" xlink:href="#New_Gradient_Swatch_2"/>
    <radialGradient id="New_Gradient_Swatch_2-13" cx="290.44" cy="106.98" r="17.16" xlink:href="#New_Gradient_Swatch_2"/>
    <radialGradient id="New_Gradient_Swatch_2-14" cx="324.58" cy="106.93" r="13.91" xlink:href="#New_Gradient_Swatch_2"/>
    <radialGradient id="New_Gradient_Swatch_2-15" cx="354.68" cy="107.23" r="15.68" xlink:href="#New_Gradient_Swatch_2"/>
    <radialGradient id="New_Gradient_Swatch_2-16" cx="386.93" cy="106.39" r="14.6" xlink:href="#New_Gradient_Swatch_2"/>
    <radialGradient id="New_Gradient_Swatch_2-17" cx="418.68" cy="107" r="15.55" xlink:href="#New_Gradient_Swatch_2"/>
    <radialGradient id="New_Gradient_Swatch_2-18" cx="447.73" cy="107" r="13.16" xlink:href="#New_Gradient_Swatch_2"/>
    <radialGradient id="New_Gradient_Swatch_2-19" cx="74.31" cy="80.01" r="13.66" xlink:href="#New_Gradient_Swatch_2"/>
    <radialGradient id="New_Gradient_Swatch_2-20" cx="46.79" cy="70.11" r="59.6" xlink:href="#New_Gradient_Swatch_2"/>
  </defs>
  <g id="Layer_2" data-name="Layer 2">
    <g id="Layer_1-2" data-name="Layer 1">
      <g>
        <path class="cls-1" d="M163.73,58.75c-.49,2.63-2.44,10.39-3.07,12.81H123.11L122.62,70c8.53-12.67,18-26.94,26.64-40.24H138.49c-5,0-6.22.7-7.69,3.05a32.67,32.67,0,0,0-2.8,6l-2.65-.07a36.22,36.22,0,0,1,.74-7.4,35.29,35.29,0,0,1,1.31-4.75l5.64,0h28.25l.49,1.24c-8.54,13-17.56,26.67-26.3,40.38,2.31.21,4.34.21,8.74.21,8.33,0,9.65-.21,11.68-2.08a25.52,25.52,0,0,0,5.18-8.17Z"/>
        <path class="cls-2" d="M194.15,25.58c12.93,0,23.49,9.35,23.49,23,0,14.75-10.63,24-23.84,24-14,0-24.13-10.11-24.13-23.47C169.67,37.28,178.2,25.58,194.15,25.58Zm-1.05,3.05c-7.14,0-12.38,6.92-12.38,19.18,0,11.7,4.69,21.75,14.12,21.75,6.65,0,11.82-6.38,11.82-19.05C206.66,36.8,201.21,28.63,193.1,28.63Z"/>
        <path class="cls-3" d="M273,29.11c-4.26.55-5.59,1.46-5.8,4.57-.21,2.7-.42,5.06-.42,11.08V72.33h-3.92L233.72,37.7V53.35a103.77,103.77,0,0,0,.35,10.73c.28,3,1.74,4.64,6.92,4.92v2.56H223.65V69c4-.34,5.73-1.38,6.15-4.64a92,92,0,0,0,.42-11V36.94c0-2.29-.14-3.81-1.47-5.61s-2.93-1.94-5.87-2.22V26.55h13.63l26.64,30.68V44.76c0-6-.07-8.31-.28-10.87-.21-3-1.32-4.43-7.13-4.78V26.55H273Z"/>
        <path class="cls-4" d="M300.77,71.56V69c4.4-.62,4.4-1.38,3.42-4.36-.69-2.08-1.81-5.2-2.86-8H287.69c-.77,2.15-1.74,4.78-2.44,6.93-1.47,4.36.21,4.92,5.73,5.4v2.56H273.71V69c4.4-.55,5.52-1.17,7.9-7L296.15,26.2l3.36-.62C304,37.63,308.74,50,313.28,61.52c2.59,6.44,3.22,6.93,7.77,7.48v2.56Zm-6.15-33.1c-2,5-4,9.63-5.74,14.68H300Z"/>
        <path class="cls-5" d="M364.53,38c-1.4-4.44-3.35-9.49-9.79-9.49A6.41,6.41,0,0,0,348,35.21c0,3.8,2.59,6.09,8.74,9.14C364.25,48,369,51.62,369,58.47c0,8.18-6.85,14.13-16.85,14.13a40.79,40.79,0,0,1-11.75-2.14c-.42-1.6-1.61-8.8-2.1-12l2.73-.63c1.4,4.37,5.31,11.91,12.17,11.91,4.26,0,6.85-2.63,6.85-7.06,0-4-2.52-6.37-8.39-9.49-7.27-3.88-12-7.34-12-14.54s5.73-13,16.22-13a53,53,0,0,1,10,1.24c.28,2.57.77,6.17,1.33,10.53Z"/>
        <path class="cls-6" d="M422.57,29.11c-4.48.42-5.67,1.73-5.95,4.22a87.23,87.23,0,0,0-.35,9.29v9.07c0,6-1,12-5,16.14-3.22,3.32-8.18,4.77-13.15,4.77-4.61,0-9.23-1-12.51-3.6-4.06-3-6-7.27-6-15V36.45c0-6.37-.63-6.86-5.94-7.34V26.55H395.3v2.56c-5.25.48-5.88,1-5.88,7.34V54.87c0,7.76,3.85,12.89,11.33,12.89,8.32,0,12-6.1,12-16.49V42.62c0-4.78-.21-7.28-.35-9.35-.28-3.19-2.24-3.88-7.13-4.16V26.55h17.34Z"/>
        <path class="cls-7" d="M463.68,59.38c-.56,3-2.52,10.31-3.15,12.18H425.85V69c6.15-.41,6.71-.9,6.71-6.72V35.9c0-5.82-.7-6.37-5.94-6.79V26.55h21.81v2.56c-5.45.48-6.15,1-6.15,6.79V62.77c0,3.81.14,5.54,4,5.61.14.07,3.35.07,3.63.07,4,0,5-.83,6.71-2.7A29,29,0,0,0,461,58.54Z"/>
      </g>
      <g>
        <path class="cls-8" d="M144.3,113.94c-.35,2-1.59,7-2,8.22h-22v-1.73c3.91-.28,4.27-.6,4.27-4.53V98.1c0-3.93-.45-4.3-3.78-4.58V91.79h13.85v1.73c-3.46.33-3.9.65-3.9,4.58v18.13c0,2.57.09,3.74,2.53,3.78.09,0,2.13,0,2.31,0,2.53,0,3.19-.56,4.26-1.82a20.07,20.07,0,0,0,2.8-4.86Z"/>
        <path class="cls-9" d="M163.17,122.16v-1.73c2.8-.42,2.8-.93,2.18-2.94-.45-1.4-1.16-3.5-1.82-5.37h-8.66c-.49,1.45-1.11,3.22-1.55,4.67-.94,2.94.13,3.32,3.64,3.64v1.73H146v-1.73c2.8-.37,3.51-.79,5-4.71l9.23-24.16,2.13-.42c2.84,8.13,5.86,16.45,8.75,24.25,1.64,4.34,2,4.67,4.93,5v1.73Zm-3.91-22.33c-1.28,3.36-2.53,6.49-3.64,9.9h7.06Z"/>
        <path class="cls-10" d="M208.59,93.52c-2.71.37-3.55,1-3.68,3.08-.14,1.83-.27,3.42-.27,7.48v18.6h-2.49L183.64,99.31v10.56c0,4.07.09,5.89.22,7.25.18,2,1.11,3.13,4.4,3.31v1.73h-11v-1.73c2.54-.23,3.65-.93,3.91-3.13a65.16,65.16,0,0,0,.27-7.43V98.8a5.81,5.81,0,0,0-.93-3.78c-.8-1.17-1.87-1.31-3.73-1.5V91.79h8.65l16.92,20.7v-8.41c0-4.06,0-5.61-.18-7.33-.13-2-.84-3-4.53-3.23V91.79h11Z"/>
        <path class="cls-11" d="M239.09,114.13a66.9,66.9,0,0,1-2.49,7.52,36.32,36.32,0,0,1-8.16,1.21c-11.95,0-16.88-8.08-16.88-15.51,0-9.67,7-16.21,17.67-16.21a44.9,44.9,0,0,1,8.4,1.12c.22,2.2.53,5.65.84,7.71l-1.78.33c-.93-3.65-2.26-5.38-4.61-6.36a10.67,10.67,0,0,0-3.87-.65c-6.43,0-9.68,5.65-9.68,13,0,8.55,4.18,14.34,10.26,14.34,3.73,0,6.22-2.06,8.61-7.2Zm-10.17,8.59a7.68,7.68,0,0,0-1.46,2c0,.33.22.66,1.15,1,2.67,1.17,3.24,2.15,3.24,3.5,0,2.53-2.35,4.77-7.23,5.19l-.4-1.49c2.88-.66,4-1.36,4-2.25,0-.6-.45-1-2-1.68-1.43-.65-2.18-1.35-2.14-2.38,0-.84,1-2.15,2.89-3.93Z"/>
        <path class="cls-12" d="M258.58,122.16v-1.73c2.8-.42,2.8-.93,2.18-2.94-.45-1.4-1.16-3.5-1.82-5.37h-8.66c-.49,1.45-1.11,3.22-1.56,4.67-.93,2.94.14,3.32,3.64,3.64v1.73h-11v-1.73c2.8-.37,3.51-.79,5-4.71l9.23-24.16,2.13-.42c2.84,8.13,5.86,16.45,8.75,24.25,1.64,4.34,2,4.67,4.93,5v1.73Zm-3.91-22.33c-1.28,3.36-2.53,6.49-3.64,9.9h7.06Z"/>
        <path class="cls-13" d="M295.87,122.16v-1.73c3.38-.37,3.6-.7,3.6-4.9l0-18.22c-3.2,8-6.71,16.91-9.9,24.85h-1.47c-2.88-7.61-6-16.3-9.23-24.48-.58,14.67-.58,17.57-.58,19.25,0,2.52.93,3.18,4.26,3.5v1.73h-11v-1.73c2.53-.23,3.69-.74,4-3.55.18-1.4.36-4.06,1.38-19.48.13-2.24-.18-3.51-4-3.88V91.79h9.59l8.57,20.61,8.61-20.61h9.37v1.73c-3.55.37-3.95.75-3.86,4.49l.35,17.52c.05,4.2.23,4.39,3.82,4.9v1.73Z"/>
        <path class="cls-14" d="M337,114.22c-.22,1.26-1.46,6.63-1.86,7.94H312.12v-1.68c4-.42,4.31-.65,4.31-4.58V98.05c0-4-.53-4.25-3.55-4.53V91.79h14.43c4.66,0,6.21,0,6.84-.09,0,.84.26,4.67.44,7.57l-1.73.23A12.07,12.07,0,0,0,331,95.16c-.8-.94-1.38-1.22-3.64-1.22h-2.89c-1.68,0-1.86.1-1.86,1.68v9.77h4.35c2.48,0,2.93-.7,3.59-4h1.74v10.42H330.5c-.71-3.46-1.06-4-3.64-4h-4.3v8c0,3.22.09,4.2,2.84,4.25h3.15c2.49,0,3.15-.33,4.13-1.59a20.92,20.92,0,0,0,2.71-4.67Z"/>
        <path class="cls-15" d="M370.6,93.52c-2.71.37-3.56,1-3.69,3.08-.13,1.83-.27,3.42-.27,7.48v18.6h-2.48L345.64,99.31v10.56a71.63,71.63,0,0,0,.23,7.25c.17,2,1.11,3.13,4.39,3.31v1.73h-11v-1.73c2.53-.23,3.64-.93,3.91-3.13a68.54,68.54,0,0,0,.26-7.43V98.8a5.81,5.81,0,0,0-.93-3.78c-.8-1.17-1.86-1.31-3.73-1.5V91.79h8.66l16.91,20.7v-8.41c0-4.06,0-5.61-.17-7.33-.14-2-.85-3-4.53-3.23V91.79h11Z"/>
        <path class="cls-16" d="M398.57,99.88a14.87,14.87,0,0,0-1.91-4.58c-.8-1-1.16-1.36-3.78-1.36H390v22c0,3.93.44,4.21,4.4,4.53v1.73H379.7v-1.73c3.77-.32,4.17-.6,4.17-4.53v-22h-2.71c-2.49,0-3.2.42-4,1.54a18.49,18.49,0,0,0-1.82,4.44h-1.69c.31-3.41.63-7,.71-9.3h1.34c.66,1.08,1.19,1.17,2.53,1.17H396a2.86,2.86,0,0,0,2.57-1.17h1.29c0,2,.22,6.08.44,9.12Z"/>
        <path class="cls-17" d="M419,91.14c8.21,0,14.92,6.31,14.92,15.51,0,9.95-6.75,16.21-15.15,16.21-8.87,0-15.31-6.82-15.31-15.84C403.45,99,408.86,91.14,419,91.14Zm-.67,2c-4.53,0-7.86,4.68-7.86,13,0,7.89,3,14.67,9,14.67,4.22,0,7.5-4.3,7.5-12.85C426.93,98.71,423.47,93.19,418.32,93.19Z"/>
        <path class="cls-18" d="M454.64,99.5c-.89-3-2.13-6.4-6.22-6.4a4.21,4.21,0,0,0-4.26,4.53c0,2.57,1.64,4.11,5.55,6.17,4.75,2.48,7.77,4.91,7.77,9.53,0,5.51-4.35,9.53-10.7,9.53a24.71,24.71,0,0,1-7.46-1.44c-.27-1.08-1-5.94-1.33-8.13l1.73-.43c.89,3,3.37,8,7.73,8,2.7,0,4.35-1.77,4.35-4.77,0-2.71-1.6-4.29-5.33-6.4-4.62-2.61-7.64-5-7.64-9.81s3.64-8.78,10.3-8.78a31.3,31.3,0,0,1,6.35.84c.18,1.73.49,4.16.84,7.1Z"/>
      </g>
      <g>
        <path class="cls-19" d="M82.59,66.59c-3.1,6.92-7.37,13.29-10.91,16.33-2.83,2.47-5,3.49-11.26,3.9v6.62H81.71C83,88.6,87.16,73.09,88.19,67.83Z"/>
        <path class="cls-20" d="M64.42,45.9c9.85-14,19.64-27.9,29.16-41.43l-1-2.64L33.26,0,20.64.07Q18.47,12.54,16.31,25l5.58.32A67.67,67.67,0,0,1,28.15,13c3.24-4.83,5.78-6.2,16.36-5.88l22.63.7C61.53,15.88,55.77,24.07,50,32.3a80.43,80.43,0,0,0-9.8-.61C16.16,31.69,3,45,3,61.74c0,9.7,3.71,16.47,10.11,22.2L8.56,90.31l.93,3.22,18.88.58c.72.4,1.45.8,2.19,1.19,13.44,7.2,19.2,12.63,19.2,21.9,0,10.23-5.92,16.31-15.68,16.31-15.68,0-24.64-17.43-27.84-27.5L0,107.45c1.12,7.52,3.84,24.14,4.8,27.82,7.52,2.23,16.64,4.95,26.88,4.95,22.88,0,38.56-13.75,38.56-32.61a26.88,26.88,0,0,0-2.75-12.29l-4.95-6.9c-4.59-4.77-11-8.75-18.89-12.71l14.5-20.86m-35.91-.94C22.24,45,28.32,38.4,37.6,38.4a21.83,21.83,0,0,1,7.24,1.14c-6,8.51-12.08,17-18.05,25.38A15,15,0,0,1,22.24,53.91Z"/>
      </g>
    </g>
  </g>
</svg>
